<svg width="23" height="23" viewBox="0 0 23 23" fill="none" xmlns="http://www.w3.org/2000/svg">
<path d="M20.125 4.3125H2.875C2.49375 4.3125 2.12812 4.46395 1.85853 4.73353C1.58895 5.00312 1.4375 5.36875 1.4375 5.75V17.25C1.4375 17.6312 1.58895 17.9969 1.85853 18.2665C2.12812 18.536 2.49375 18.6875 2.875 18.6875H20.125C20.5062 18.6875 20.8719 18.536 21.1415 18.2665C21.411 17.9969 21.5625 17.6312 21.5625 17.25V5.75C21.5625 5.36875 21.411 5.00312 21.1415 4.73353C20.8719 4.46395 20.5062 4.3125 20.125 4.3125ZM18.5437 5.75L11.5 10.6231L4.45625 5.75H18.5437ZM2.875 17.25V6.40406L11.0903 12.0894C11.2106 12.1728 11.3536 12.2176 11.5 12.2176C11.6464 12.2176 11.7894 12.1728 11.9097 12.0894L20.125 6.40406V17.25H2.875Z" fill="white"/>
</svg>
