<svg width="10" height="10" viewBox="0 0 10 10" fill="none" xmlns="http://www.w3.org/2000/svg">
<path d="M6.41652 4.99605L9.70731 1.70525C10.0976 1.31534 10.0976 0.682683 9.70731 0.292436C9.31707 -0.0974785 8.68508 -0.0974785 8.29483 0.292436L5.00404 3.58323L1.71324 0.292769C1.32333 -0.0974786 0.690674 -0.0974786 0.300427 0.292769C-0.0894872 0.682683 -0.0894872 1.31534 0.300427 1.70558L3.59122 4.99605L0.292436 8.29483C-0.0974786 8.68475 -0.0974786 9.3174 0.292436 9.70731C0.487226 9.90244 0.743284 10 0.998676 10C1.25407 10 1.51013 9.90244 1.70525 9.70731L5.00371 6.40886L8.29417 9.69932C8.48929 9.89445 8.74502 9.99201 9.00041 9.99201C9.2558 9.99201 9.51153 9.89445 9.70665 9.69932C10.0969 9.30941 10.0969 8.67676 9.70665 8.28684L6.41652 4.99605Z" fill="white"/>
</svg>
