<svg width="23" height="23" viewBox="0 0 23 23" fill="none" xmlns="http://www.w3.org/2000/svg">
<path fill-rule="evenodd" clip-rule="evenodd" d="M0.958496 2.71992C0.958496 2.25276 1.14407 1.80474 1.4744 1.47441C1.80473 1.14408 2.25276 0.958498 2.71991 0.958498H20.2785C20.51 0.95812 20.7393 1.00341 20.9533 1.09177C21.1673 1.18013 21.3617 1.30983 21.5255 1.47345C21.6893 1.63706 21.8192 1.83137 21.9078 2.04526C21.9964 2.25915 22.042 2.48841 22.0418 2.71992V20.2785C22.0421 20.5101 21.9967 20.7394 21.9082 20.9534C21.8197 21.1674 21.69 21.3618 21.5263 21.5256C21.3626 21.6894 21.1682 21.8193 20.9543 21.9078C20.7403 21.9964 20.511 22.042 20.2795 22.0418H2.71991C2.48852 22.0418 2.25939 21.9962 2.04563 21.9077C1.83186 21.8191 1.63764 21.6893 1.47406 21.5256C1.31049 21.3619 1.18076 21.1676 1.0923 20.9538C1.00384 20.74 0.95837 20.5109 0.958496 20.2795V2.71992ZM9.30366 8.997H12.1585V10.4307C12.5706 9.6065 13.6248 8.86475 15.2089 8.86475C18.2459 8.86475 18.9656 10.5064 18.9656 13.5184V19.0978H15.8922V14.2046C15.8922 12.4892 15.4801 11.5212 14.4336 11.5212C12.9817 11.5212 12.378 12.5649 12.378 14.2046V19.0978H9.30366V8.997ZM4.03283 18.9665H7.10716V8.86475H4.03283V18.9656V18.9665ZM7.54704 5.57C7.55283 5.83323 7.50599 6.09496 7.40927 6.33984C7.31254 6.58472 7.16787 6.80782 6.98376 6.99603C6.79965 7.18424 6.57979 7.33379 6.3371 7.43588C6.09441 7.53798 5.83377 7.59057 5.57048 7.59057C5.30718 7.59057 5.04654 7.53798 4.80385 7.43588C4.56116 7.33379 4.34131 7.18424 4.15719 6.99603C3.97308 6.80782 3.82841 6.58472 3.73168 6.33984C3.63496 6.09496 3.58812 5.83323 3.59391 5.57C3.60529 5.05332 3.81853 4.56163 4.18797 4.20024C4.55741 3.83885 5.05367 3.63648 5.57048 3.63648C6.08728 3.63648 6.58354 3.83885 6.95298 4.20024C7.32242 4.56163 7.53566 5.05332 7.54704 5.57Z" fill="white"/>
</svg>
