<svg width="201" height="119" viewBox="0 0 201 119" fill="none" xmlns="http://www.w3.org/2000/svg">
<rect x="138.178" y="112.83" width="5.80579" height="5.66982" fill="white"/>
<rect x="132.371" y="107.16" width="5.80573" height="5.66986" fill="white"/>
<rect x="126.564" y="107.16" width="5.80578" height="5.66986" fill="white"/>
<rect x="120.76" y="107.16" width="5.80572" height="5.66986" fill="white"/>
<rect x="114.953" y="107.16" width="5.80573" height="5.66986" fill="white"/>
<rect x="109.148" y="101.49" width="5.80579" height="5.66985" fill="white"/>
<rect x="103.342" y="96.9546" width="5.80574" height="5.66989" fill="white"/>
<rect x="97.5371" y="91.2847" width="5.80574" height="5.66984" fill="white"/>
<rect x="97.5371" y="85.6147" width="5.80574" height="5.66985" fill="white"/>
<rect x="97.5371" y="79.9448" width="5.80574" height="5.66985" fill="white"/>
<rect x="97.5371" y="74.2751" width="5.80574" height="5.66986" fill="white"/>
<rect x="97.5371" y="73.1411" width="5.80574" height="1.13396" fill="white"/>
<rect x="132.371" y="101.49" width="5.80573" height="5.66985" fill="white"/>
<rect x="132.371" y="95.8206" width="5.80573" height="5.66984" fill="white"/>
<rect x="188.688" y="67.4712" width="5.80579" height="5.66985" fill="white"/>
<rect x="188.688" y="5.66992" width="5.80579" height="5.66986" fill="white"/>
<rect x="5.80469" y="5.66992" width="5.80575" height="5.66986" fill="white"/>
<rect x="5.80469" y="67.4712" width="5.80575" height="5.66985" fill="white"/>
<rect y="11.3398" width="5.80575" height="56.1315" fill="white"/>
<rect x="11.6113" width="177.075" height="5.66986" fill="white"/>
<rect x="194.492" y="11.3398" width="5.80579" height="56.1315" fill="white"/>
<rect x="126.564" y="90.1509" width="5.80578" height="5.66988" fill="white"/>
<rect x="126.564" y="84.481" width="5.80578" height="5.66985" fill="white"/>
<rect x="126.564" y="78.811" width="5.80578" height="5.66988" fill="white"/>
<rect x="126.564" y="73.1411" width="5.80578" height="5.66985" fill="white"/>
<rect x="132.371" y="73.1411" width="56.3158" height="5.66985" fill="white"/>
<rect x="11.6113" y="73.1411" width="85.9251" height="5.66985" fill="white"/>
amsdkasmdkamsdkmas
</svg>
