<svg width="58" height="39" viewBox="0 0 58 39" fill="none" xmlns="http://www.w3.org/2000/svg">
<path d="M43.3195 38.2414L41.7843 38.2407L39.3157 38.2385L28.6525 38.2334L30.1389 34.8626H37.259L33.1297 28.0823L29.0635 21.4074L23.1292 34.8626L22.9842 35.1895L21.6436 38.2297L21.3039 39L20.8335 38.2297L19.1307 35.4336L18.7835 34.8626L10.9195 21.9527L7.6604 29.3414L5.22491 34.8626H11.0232L13.0724 38.2253L3.74453 38.2202L0 38.2187L1.47963 34.8626L5.48792 25.775L8.74626 18.387L10.428 14.5758L12.5998 18.1422L20.8125 31.623L26.8918 17.841L28.5721 14.0305L30.7438 17.5969L34.81 24.2725L41.2613 34.8626L42.429 36.7792L43.3195 38.2414Z" fill="white"/>
<path d="M58.0003 7.66423L47.3562 32.059L46.0355 35.0861L45.6774 35.9085L45.1811 35.0861L43.5061 32.307L35.8952 19.674L31.8319 12.9321L28.5343 7.45843L26.4772 12.1733L24.7976 16.0229L21.1833 24.3067L19.0127 20.7052L22.6278 12.4206L24.3066 8.57109L26.363 3.85691V3.85617L28.0463 0L28.6702 1.03493L30.2161 3.603L36.6437 14.2728L37.5762 15.8208L44.8905 27.9645L45.1871 28.4553L55.8297 4.06124L58.0003 7.66423Z" fill="white"/>
</svg>
