<svg width="24" height="24" viewBox="0 0 24 24" fill="none" xmlns="http://www.w3.org/2000/svg">
<path d="M17.3882 8.32857L17.3794 8.32487C17.3744 8.32287 17.3694 8.32107 17.365 8.31667C17.3578 8.30896 17.3525 8.29971 17.3494 8.28962C17.3464 8.27953 17.3457 8.26887 17.3474 8.25847L17.8313 5.30037L20.1003 7.56997L17.7405 8.57397C17.7339 8.57659 17.7269 8.57785 17.7199 8.57767H17.7105C17.7058 8.57469 17.7016 8.57113 17.6979 8.56707C17.6101 8.4693 17.5051 8.38846 17.3882 8.32857ZM20.6792 8.14837L23.1054 10.5744C23.6093 11.0789 23.8615 11.3306 23.9535 11.6223C23.9673 11.6654 23.9785 11.7086 23.9873 11.7531L18.1893 9.29757C18.1862 9.29627 18.1831 9.295 18.18 9.29377C18.1568 9.28437 18.1299 9.27377 18.1299 9.24987C18.1299 9.22617 18.1574 9.21487 18.1806 9.20547L18.1881 9.20237L20.6792 8.14837ZM23.8884 12.5317C23.7632 12.7671 23.5191 13.0112 23.106 13.4249L20.3707 16.1596L16.833 15.4229L16.8142 15.4191C16.7829 15.4141 16.7497 15.4084 16.7497 15.3803C16.7362 15.2343 16.6929 15.0927 16.6224 14.9643C16.5518 14.8358 16.4556 14.7232 16.3397 14.6336C16.3253 14.6192 16.3291 14.5966 16.3334 14.576C16.3334 14.573 16.3334 14.5697 16.3347 14.5672L17.0001 10.4824L17.0026 10.4686C17.0064 10.4373 17.012 10.401 17.0402 10.401C17.1827 10.3832 17.3204 10.3373 17.445 10.2658C17.5696 10.1944 17.6788 10.0988 17.7662 9.98477C17.7718 9.97847 17.7756 9.97167 17.7832 9.96787C17.8032 9.95847 17.8269 9.96787 17.8476 9.97667L23.8878 12.5317H23.8884ZM19.7417 16.7887L15.2437 21.2866L16.0137 16.5546L16.0149 16.5483C16.0155 16.5421 16.0167 16.536 16.0187 16.5301C16.025 16.5151 16.0413 16.5088 16.0569 16.5026L16.0644 16.4995C16.2329 16.4275 16.382 16.3166 16.4994 16.1759C16.5144 16.1583 16.5326 16.1414 16.5558 16.1383C16.5618 16.1373 16.5679 16.1373 16.5739 16.1383L19.7411 16.7893L19.7417 16.7887ZM14.2917 22.2386L13.7847 22.7456L8.17947 14.6449C8.17747 14.6419 8.1754 14.639 8.17327 14.6361C8.16447 14.6241 8.15507 14.6123 8.15697 14.5985C8.15757 14.5885 8.16387 14.5797 8.17077 14.5722L8.17697 14.5641C8.19397 14.5391 8.20827 14.5141 8.22397 14.4871L8.23647 14.4652L8.23837 14.4633C8.24707 14.4483 8.25527 14.4339 8.27027 14.4257C8.28337 14.4194 8.30157 14.4219 8.31597 14.4251L14.5258 15.7058C14.5431 15.7085 14.5595 15.7155 14.5734 15.7264C14.5814 15.7345 14.5834 15.7434 14.5853 15.7534C14.6286 15.9172 14.7092 16.0689 14.8208 16.1964C14.9324 16.324 15.072 16.4241 15.2287 16.4888C15.2462 16.4976 15.2387 16.517 15.2307 16.5376C15.2266 16.5466 15.2234 16.5561 15.2212 16.5658C15.143 17.0415 14.472 21.1338 14.2917 22.2386ZM13.2327 23.297C12.859 23.667 12.6387 23.8629 12.3895 23.9417C12.1438 24.0193 11.8802 24.0193 11.6346 23.9417C11.343 23.8491 11.0907 23.5975 10.5868 23.093L4.95777 17.464L6.42817 15.1838C6.43438 15.1723 6.44289 15.1623 6.45317 15.1544C6.46887 15.1431 6.49137 15.1481 6.51017 15.1544C6.84766 15.2562 7.21001 15.2378 7.53547 15.1024C7.55237 15.0961 7.56927 15.0918 7.58237 15.1037C7.58893 15.1097 7.5948 15.1164 7.59987 15.1237L13.2326 23.2977L13.2327 23.297ZM4.41517 16.9214L3.12387 15.63L5.67387 14.5421C5.6804 14.5392 5.68745 14.5377 5.69457 14.5377C5.71587 14.5377 5.72837 14.559 5.73957 14.5784C5.76521 14.6178 5.79236 14.6562 5.82097 14.6936L5.82917 14.7036C5.83667 14.7142 5.83167 14.7249 5.82417 14.7349L4.41577 16.9213L4.41517 16.9214ZM2.55237 15.0586L0.918772 13.4249C0.640772 13.147 0.439272 12.9455 0.299072 12.7721L5.26647 13.8024C5.27269 13.8035 5.27892 13.8045 5.28517 13.8054C5.31587 13.8104 5.34967 13.8161 5.34967 13.8449C5.34967 13.8762 5.31267 13.8906 5.28147 13.9025L5.26707 13.9088L2.55237 15.0586ZM0.0136719 11.932C0.0193253 11.8267 0.0382416 11.7227 0.0699719 11.6222C0.162672 11.3305 0.414272 11.0788 0.918772 10.5744L3.00937 8.48377C3.97193 9.88074 4.9371 11.2759 5.90487 12.6693C5.92187 12.6919 5.94057 12.7169 5.92117 12.7357C5.82977 12.8365 5.73837 12.9467 5.67387 13.0662C5.66688 13.0815 5.65611 13.0949 5.64257 13.105C5.63457 13.11 5.62567 13.108 5.61637 13.1063H5.61507L0.0136719 11.9313V11.932ZM3.56897 7.92417L6.37997 5.11317C6.64407 5.22887 7.60557 5.63517 8.46557 5.99817C9.11657 6.27357 9.70987 6.52397 9.89637 6.60527C9.91517 6.61287 9.93207 6.62027 9.94027 6.63907C9.94527 6.65037 9.94277 6.66477 9.94027 6.67667C9.89576 6.87958 9.90237 7.09036 9.9595 7.29008C10.0166 7.4898 10.1225 7.6722 10.2676 7.82087C10.2864 7.83967 10.2676 7.86657 10.2513 7.88977L10.2425 7.90287L7.38827 12.3239C7.38077 12.3363 7.37387 12.3469 7.36137 12.3551C7.34637 12.3645 7.32507 12.3601 7.30757 12.3557C7.19652 12.3266 7.08236 12.311 6.96757 12.3094C6.86497 12.3094 6.75357 12.3282 6.64097 12.3489H6.64027C6.62777 12.3508 6.61647 12.3533 6.60647 12.3458C6.59543 12.3367 6.58594 12.3259 6.57837 12.3138L3.56897 7.92417ZM6.94767 4.54537L10.5868 0.906372C11.0908 0.402472 11.343 0.150272 11.6346 0.0582722C11.8802 -0.0194241 12.1439 -0.0194241 12.3896 0.0582722C12.6812 0.150272 12.9334 0.402472 13.4373 0.906272L14.226 1.69507L11.6378 5.70347C11.6314 5.71513 11.6226 5.72534 11.6121 5.73347C11.5965 5.74417 11.5746 5.73977 11.5558 5.73347C11.3517 5.67155 11.1356 5.66027 10.9262 5.70063C10.7168 5.74098 10.5204 5.83175 10.354 5.96507C10.3371 5.98267 10.312 5.97257 10.2908 5.96317C9.95277 5.81617 7.32377 4.70517 6.94777 4.54547L6.94767 4.54537ZM14.7755 2.24447L17.1653 4.63427L16.5895 8.20077V8.21017C16.589 8.21831 16.5873 8.22632 16.5845 8.23397C16.5782 8.24647 16.5657 8.24897 16.5532 8.25277C16.4301 8.29007 16.3141 8.34785 16.2102 8.42367C16.2057 8.42684 16.2015 8.43039 16.1977 8.43427C16.1907 8.44177 16.1839 8.44867 16.1727 8.44997C16.1635 8.45026 16.1543 8.44876 16.1457 8.44557L12.5041 6.89827L12.4971 6.89517C12.474 6.88577 12.4465 6.87447 12.4465 6.85067C12.4251 6.64775 12.3588 6.45212 12.2525 6.27797C12.2349 6.24917 12.2155 6.21917 12.2305 6.18967L14.7755 2.24447ZM12.3145 7.63127L15.7283 9.07727C15.7471 9.08597 15.7677 9.09407 15.7759 9.11347C15.7791 9.12515 15.7791 9.1375 15.7759 9.14917C15.7642 9.20329 15.758 9.25842 15.7571 9.31377V9.40957C15.7571 9.43337 15.7327 9.44337 15.7101 9.45277L15.7032 9.45527C15.1624 9.68627 8.11077 12.6933 8.10017 12.6933C8.08947 12.6933 8.07817 12.6933 8.06757 12.6826C8.04877 12.6638 8.06757 12.6375 8.08447 12.6137C8.08744 12.6096 8.09034 12.6054 8.09317 12.6012L10.8986 8.25717L10.9036 8.24977C10.9199 8.22347 10.9386 8.19407 10.9687 8.19407L10.9969 8.19837C11.0607 8.20717 11.1171 8.21537 11.174 8.21537C11.5997 8.21537 11.994 8.00817 12.2319 7.65387C12.2375 7.64443 12.2447 7.63598 12.2531 7.62887C12.2701 7.61627 12.2951 7.62257 12.3145 7.63127ZM8.40497 13.3805L16.0913 10.1025C16.0913 10.1025 16.1026 10.1025 16.1133 10.1131C16.1552 10.1551 16.1909 10.1832 16.2253 10.2095L16.2422 10.2202C16.2578 10.229 16.2735 10.239 16.2747 10.2552C16.2747 10.2615 16.2747 10.2652 16.2734 10.2709L15.615 14.3156L15.6125 14.3319C15.6081 14.3632 15.6037 14.3989 15.5743 14.3989C15.3987 14.4107 15.2287 14.4652 15.079 14.5575C14.9292 14.6499 14.8042 14.7774 14.7149 14.929L14.7118 14.934C14.703 14.9484 14.6948 14.9622 14.6805 14.9697C14.6674 14.976 14.6505 14.9735 14.6367 14.9703L8.50687 13.706C8.50057 13.7047 8.41167 13.3811 8.40487 13.3805H8.40497Z" fill="white"/>
</svg>
