<svg width="21" height="21" viewBox="0 0 21 21" fill="none" xmlns="http://www.w3.org/2000/svg">
<g clip-path="url(#clip0)">
<path d="M10.1258 0C9.9715 0 9.85469 0.0011375 9.81216 0.0058625C9.76701 0.0105 9.62325 0.0242375 9.49401 0.0345625C6.51131 0.30345 3.71753 1.91258 1.94801 4.38576C0.962675 5.761 0.3325 7.32078 0.0945 8.97313C0.010325 9.54975 0 9.72011 0 10.5021C0 11.2841 0.0105 11.4544 0.0945 12.0312C0.665 15.974 3.47121 19.2867 7.27711 20.5139C7.95865 20.7337 8.67711 20.8834 9.4941 20.9737C9.81225 21.0087 11.1876 21.0087 11.5057 20.9737C12.916 20.8177 14.1108 20.4689 15.289 19.8675C15.4697 19.7751 15.5046 19.7505 15.48 19.7299C15.4635 19.7177 14.6936 18.6853 13.77 17.4373L12.0908 15.1693L9.98672 12.0558C8.82901 10.344 7.87649 8.94434 7.86826 8.94434C7.86004 8.94206 7.8519 10.3257 7.8477 12.0147C7.84184 14.9724 7.83956 15.0914 7.80255 15.1612C7.74918 15.2618 7.70805 15.3028 7.62195 15.3479C7.55632 15.3807 7.49875 15.3869 7.18882 15.3869H6.83358L6.73925 15.3274C6.68075 15.2907 6.63323 15.239 6.6017 15.1776L6.55856 15.0852L6.5632 10.97L6.56906 6.85283L6.63259 6.77276C6.66549 6.72963 6.73531 6.67432 6.78449 6.64764C6.86866 6.60651 6.90156 6.6024 7.25664 6.6024C7.6755 6.6024 7.74524 6.61876 7.854 6.73776C7.88489 6.77075 9.02414 8.48662 10.3871 10.5535C11.7672 12.6454 13.148 14.7369 14.5297 16.8277L16.1924 19.3462L16.2764 19.2908C17.0217 18.8064 17.8098 18.1167 18.4339 17.3984C19.762 15.8734 20.6182 14.0139 20.9055 12.0312C20.9896 11.4544 20.9998 11.2839 20.9998 10.5021C20.9998 9.72011 20.9893 9.54975 20.9055 8.97295C20.3348 5.0302 17.5287 1.71754 13.7229 0.490263C13.0516 0.27265 12.3372 0.122763 11.5367 0.0324625C11.3888 0.0170625 10.5886 0.0004375 10.1259 8.75e-05L10.1258 0ZM13.6857 6.31488C13.9896 6.31488 14.0429 6.31951 14.1107 6.356C14.2093 6.40517 14.2892 6.49967 14.3181 6.59811C14.3343 6.65149 14.3385 7.79275 14.3343 10.3645L14.3285 14.0548L13.6778 13.0573L13.025 12.0598V9.37703C13.025 7.64278 13.0331 6.66776 13.0455 6.6206C13.0783 6.50571 13.1501 6.41532 13.2487 6.36204C13.3328 6.31881 13.3636 6.31479 13.686 6.31479L13.6857 6.31488Z" fill="white"/>
</g>
<defs>
<clipPath id="clip0">
<rect width="21" height="21" fill="white"/>
</clipPath>
</defs>
</svg>
