<svg width="24" height="24" viewBox="0 0 24 24" fill="none" xmlns="http://www.w3.org/2000/svg">
<g clip-path="url(#clip0)">
<path d="M7.70039 0C5.03339 0 4.06639 0.278 3.09039 0.8C2.12472 1.31225 1.33551 2.1032 0.825391 3.07C0.303391 4.047 0.0253906 5.017 0.0253906 7.692V8.69C0.0253906 8.889 0.103391 9.078 0.243391 9.219L2.01339 10.993C2.03431 11.0143 2.06112 11.0289 2.09037 11.0348C2.11962 11.0408 2.14999 11.0379 2.17759 11.0265C2.20519 11.0152 2.22876 10.9958 2.24529 10.9709C2.26183 10.9461 2.27057 10.9169 2.27039 10.887V8.019C2.27039 6.013 2.47839 5.286 2.87039 4.552C3.253 3.8273 3.84459 3.23431 4.56839 2.85C5.29939 2.458 6.02539 2.25 8.02739 2.25H10.1914C10.3904 2.25 10.5814 2.17 10.7214 2.029L12.4914 0.257C12.5126 0.236197 12.5271 0.209578 12.5331 0.180513C12.5392 0.151449 12.5365 0.121246 12.5253 0.093728C12.5142 0.0662103 12.4951 0.0426155 12.4706 0.0259308C12.446 0.00924598 12.4171 0.000221549 12.3874 0L7.70039 0ZM15.3054 0C15.1054 0 14.9134 0.08 14.7734 0.22L13.0044 1.995C12.9906 2.00858 12.9796 2.02476 12.972 2.04261C12.9645 2.06045 12.9605 2.07962 12.9604 2.099C12.9604 2.182 13.0284 2.249 13.1104 2.249H15.9724C17.9744 2.249 18.7004 2.459 19.4324 2.85C20.1562 3.23436 20.7477 3.82733 21.1304 4.552C21.5204 5.286 21.7294 6.013 21.7294 8.019V10.189C21.7294 10.387 21.8074 10.579 21.9474 10.719L23.7174 12.493C23.7383 12.5143 23.7651 12.5289 23.7944 12.5348C23.8236 12.5408 23.854 12.5379 23.8816 12.5265C23.9092 12.5152 23.9328 12.4958 23.9493 12.4709C23.9658 12.4461 23.9746 12.4169 23.9744 12.387V7.692C23.9744 5.017 23.6964 4.047 23.1744 3.069C22.6643 2.10305 21.8754 1.31283 20.9104 0.801C19.9354 0.278 18.9684 0 16.3004 0H15.3054ZM6.76139 3.75C6.36791 3.75026 5.97834 3.82806 5.61494 3.97894C5.25154 4.12982 4.92144 4.35083 4.64348 4.62934C4.36553 4.90785 4.14518 5.23839 3.99503 5.6021C3.84488 5.9658 3.76786 6.35552 3.76839 6.749V12.44C3.76856 12.6384 3.84731 12.8286 3.98739 12.969L5.75739 14.745C5.77823 14.7661 5.8049 14.7805 5.83397 14.7864C5.86304 14.7922 5.8932 14.7893 5.92059 14.7779C5.94797 14.7665 5.97134 14.7472 5.98769 14.7225C6.00405 14.6977 6.01265 14.6687 6.01239 14.639V7.499C6.01247 7.31793 6.04533 7.13836 6.10939 6.969C6.18139 6.769 6.29739 6.584 6.45739 6.424L8.76539 4.003C8.78557 3.98164 8.79903 3.95482 8.8041 3.92588C8.80917 3.89693 8.80562 3.86714 8.79391 3.84019C8.78219 3.81324 8.76282 3.79033 8.73819 3.77429C8.71357 3.75826 8.68478 3.74981 8.65539 3.75H6.76139ZM11.5634 3.75C11.3634 3.75 11.1734 3.83 11.0334 3.97L9.26039 5.744C9.23991 5.76516 9.22607 5.79184 9.22056 5.82076C9.21505 5.84968 9.21811 5.87958 9.22937 5.90679C9.24064 5.93399 9.25961 5.95731 9.28395 5.97387C9.3083 5.99043 9.33695 5.99951 9.36639 6H16.4904C16.6764 6 16.8544 6.034 17.0184 6.097C17.2184 6.169 17.4044 6.285 17.5644 6.444L19.9774 8.757C19.9985 8.77773 20.0254 8.79174 20.0544 8.79725C20.0835 8.80277 20.1136 8.79955 20.1409 8.788C20.1682 8.77645 20.1914 8.75709 20.2077 8.73235C20.224 8.70762 20.2326 8.67861 20.2324 8.649V6.749C20.233 6.35544 20.1561 5.96561 20.006 5.60179C19.8559 5.23797 19.6356 4.9073 19.3577 4.62869C19.0797 4.35007 18.7495 4.12898 18.3861 3.97803C18.0226 3.82709 17.633 3.74926 17.2394 3.749L11.5634 3.75ZM18.1364 9.213C18.0966 9.213 18.0585 9.2288 18.0303 9.25693C18.0022 9.28506 17.9864 9.32322 17.9864 9.363V16.502C17.987 16.683 17.9548 16.8625 17.8914 17.032C17.8168 17.2373 17.698 17.4237 17.5434 17.578L15.2354 19.998C15.2147 20.0191 15.2007 20.046 15.1951 20.0751C15.1896 20.1042 15.1928 20.1342 15.2044 20.1615C15.2159 20.1888 15.2353 20.212 15.26 20.2283C15.2848 20.2446 15.3138 20.2532 15.3434 20.253H17.2394C17.633 20.2525 18.0227 20.1744 18.3862 20.0232C18.7497 19.8721 19.0798 19.6508 19.3578 19.372C19.6357 19.0932 19.856 18.7624 20.0061 18.3985C20.1561 18.0346 20.233 17.6447 20.2324 17.251V11.561C20.2323 11.3623 20.1535 11.1718 20.0134 11.031L18.2434 9.257C18.2294 9.24295 18.2127 9.23182 18.1943 9.22427C18.1759 9.21672 18.1562 9.21289 18.1364 9.213ZM0.176391 11.463C0.136608 11.463 0.0984551 11.4788 0.0703246 11.5069C0.0421942 11.5351 0.0263906 11.5732 0.0263906 11.613V16.308C0.0263906 18.982 0.304391 19.953 0.826391 20.931C1.33621 21.8966 2.12471 22.6865 3.08939 23.198C4.06539 23.72 5.03239 24 7.70139 24H8.69539C8.89539 24 9.08539 23.92 9.22539 23.78L10.9964 22.005C11.0175 21.9842 11.0319 21.9575 11.0377 21.9284C11.0436 21.8993 11.0407 21.8692 11.0293 21.8418C11.0179 21.8144 10.9986 21.791 10.9738 21.7747C10.9491 21.7583 10.92 21.7497 10.8904 21.75H8.02739C6.02539 21.75 5.29939 21.542 4.56739 21.15C3.84359 20.7657 3.252 20.1727 2.86939 19.448C2.47939 18.714 2.27039 17.987 2.27039 15.981V13.809C2.2698 13.6108 2.19069 13.421 2.05039 13.281L0.282391 11.507C0.254287 11.4789 0.21616 11.463 0.176391 11.463ZM21.8794 12.963C21.8396 12.963 21.8015 12.9788 21.7733 13.0069C21.7452 13.0351 21.7294 13.0732 21.7294 13.113V15.981C21.7294 17.987 21.5214 18.714 21.1294 19.448C20.7468 20.1727 20.1552 20.7657 19.4314 21.15C18.7004 21.542 17.9744 21.75 15.9724 21.75H13.8084C13.7096 21.7498 13.6117 21.7691 13.5204 21.8068C13.4291 21.8446 13.3462 21.9001 13.2764 21.97L11.5074 23.743C11.4795 23.7716 11.464 23.81 11.4644 23.85C11.4644 23.933 11.5294 24 11.6124 24H16.3004C18.9704 24 19.9364 23.72 20.9124 23.198C21.8771 22.6865 22.6656 21.8966 23.1754 20.931C23.6974 19.953 23.9754 18.983 23.9754 16.308V15.31C23.9751 15.1115 23.8959 14.9212 23.7554 14.781L21.9864 13.007C21.9583 12.9789 21.9202 12.963 21.8804 12.963H21.8794ZM3.91939 15.201C3.89961 15.2009 3.88 15.2047 3.86168 15.2121C3.84337 15.2196 3.82671 15.2306 3.81268 15.2446C3.79864 15.2585 3.7875 15.2751 3.7799 15.2934C3.7723 15.3116 3.76839 15.3312 3.76839 15.351V17.249C3.76786 17.6426 3.84486 18.0324 3.99499 18.3962C4.14512 18.76 4.36544 19.0907 4.64336 19.3694C4.92129 19.648 5.25138 19.8692 5.61479 20.0203C5.9782 20.1714 6.36782 20.2495 6.76139 20.25H12.4374C12.6374 20.25 12.8274 20.17 12.9674 20.03L14.7404 18.255C14.7543 18.2415 14.7653 18.2253 14.7729 18.2074C14.7804 18.1896 14.7843 18.1704 14.7844 18.151C14.7844 18.1112 14.7686 18.0731 14.7405 18.0449C14.7123 18.0168 14.6742 18.001 14.6344 18.001H7.51039C7.32922 18.001 7.14957 17.9678 6.98039 17.903C6.77517 17.8287 6.58878 17.7103 6.43439 17.556L4.02139 15.243C3.99388 15.216 3.9569 15.201 3.91839 15.201H3.91939Z" fill="white"/>
</g>
<defs>
<clipPath id="clip0">
<rect width="24" height="24" fill="white"/>
</clipPath>
</defs>
</svg>
