<svg width="21" height="21" viewBox="0 0 21 21" fill="none" xmlns="http://www.w3.org/2000/svg">
<path d="M0.984375 0C0.43925 0 0 0.43925 0 0.984375V20.0156C0 20.5608 0.43925 21 0.984375 21H20.0156C20.5608 21 21 20.5608 21 20.0156V0.984375C21 0.43925 20.5608 0 20.0156 0H0.984375ZM16.177 8.53125C16.7125 8.53125 17.1868 8.56363 17.6006 8.62838C17.991 8.68686 18.374 8.78659 18.7434 8.92587V11.0766C18.5661 10.954 18.3777 10.8483 18.1807 10.7607C17.9776 10.6693 17.7679 10.5933 17.5534 10.5332C17.147 10.42 16.7274 10.3612 16.3056 10.3583C16.0431 10.3583 15.8042 10.3827 15.589 10.4335C15.3972 10.4745 15.2131 10.546 15.0439 10.6453C14.8951 10.7362 14.7814 10.8456 14.7 10.9725C14.6182 11.1004 14.5756 11.2494 14.5775 11.4012C14.5775 11.5728 14.6239 11.7276 14.714 11.8641C14.805 12.0006 14.9345 12.1301 15.1016 12.2526C15.2688 12.3751 15.4718 12.4941 15.7106 12.6114C15.9495 12.7295 16.2199 12.8511 16.5209 12.9754C16.9321 13.1478 17.3014 13.3315 17.6286 13.5249C17.9559 13.7191 18.2367 13.9387 18.4713 14.1837C18.7058 14.4279 18.8843 14.707 19.0085 15.0211C19.1328 15.3352 19.1957 15.7001 19.1957 16.1175C19.1957 16.6924 19.0864 17.1763 18.8694 17.5665C18.6574 17.9514 18.3531 18.2776 17.9839 18.5159C17.5859 18.7682 17.1448 18.945 16.6828 19.0374C16.1875 19.1424 15.6651 19.1949 15.1165 19.1949C14.5765 19.1972 14.0375 19.1492 13.5065 19.0514C13.0471 18.9719 12.6015 18.8266 12.1835 18.62V16.3188C12.9743 16.9917 13.9775 17.3636 15.0159 17.3687C15.3072 17.3687 15.5619 17.3425 15.7789 17.29C15.9968 17.2375 16.1779 17.164 16.324 17.0713C16.4692 16.9767 16.5777 16.8665 16.6504 16.7387C16.7306 16.59 16.7672 16.4216 16.7557 16.253C16.7442 16.0843 16.6853 15.9224 16.5856 15.7859C16.4556 15.6138 16.2966 15.4658 16.1157 15.3484C15.8914 15.1997 15.6553 15.0698 15.4096 14.9599C15.1185 14.8269 14.8247 14.6997 14.5285 14.5784C13.7253 14.2432 13.1267 13.8329 12.7321 13.349C12.3384 12.8651 12.1406 12.2798 12.1406 11.5946C12.1406 11.0574 12.2483 10.5962 12.4635 10.2104C12.6788 9.8245 12.971 9.50688 13.342 9.2575C13.7344 8.99863 14.17 8.81222 14.6283 8.70712C15.1357 8.58748 15.6556 8.52844 16.177 8.53125ZM2.95312 8.69575H11.3207V10.591H8.31775V19.0312H5.94037V10.591H2.95312V8.69575Z" fill="white"/>
</svg>
