<svg width="54" height="139" viewBox="0 0 54 139" fill="none" xmlns="http://www.w3.org/2000/svg">
<path d="M52.7631 139H1.23549C0.553536 139 6.62037e-05 138.44 6.62037e-05 137.751V132.041C-0.000551508 131.978 0.00315337 131.916 0.0111836 131.855C0.0408338 131.633 0.127933 131.43 0.257034 131.261C0.337955 131.155 0.436788 131.061 0.550447 130.984C0.550447 130.984 0.551064 130.984 0.551681 130.984C0.625189 130.934 0.703636 130.893 0.787027 130.86L8.10444 127.787C8.11988 127.781 8.13594 127.774 8.15201 127.769V109.801H7.58309C6.90114 109.801 6.34767 109.241 6.34767 108.552C6.34767 107.862 6.90114 107.302 7.58309 107.302H9.39731V102.384C9.39731 101.695 9.95078 101.135 10.6327 101.135H19.4333C19.82 100.696 20.2764 100.108 20.4463 99.6984C20.686 99.0656 20.7231 95.6156 20.5118 93.4443C20.4259 92.5598 20.0368 91.2893 19.6606 90.0606C19.29 88.8506 18.9076 87.6 18.7464 86.5238C18.4579 84.5979 18.3097 81.1892 18.8421 77.921C19.2819 75.2218 19.0997 73.1717 18.6902 70.9248C18.5561 70.1883 18.3733 69.43 18.1799 68.6267C17.7512 66.847 17.2657 64.8294 17.0254 62.0272C16.7549 58.8727 17.0285 55.3283 17.2929 51.9015C17.3744 50.8471 17.4554 49.7926 17.5215 48.7507C17.6907 46.0753 17.1669 45.9629 16.8858 45.9023C16.716 45.866 16.5041 45.8204 16.2879 45.7217C15.5157 45.3701 14.4236 44.4568 13.6064 42.1018C12.7855 39.735 12.3284 36.1682 12.2073 35.1313C12.017 33.4959 11.7094 32.0698 11.4376 30.8118C11.3647 30.472 11.2937 30.1446 11.2288 29.8279C10.8489 27.984 10.9922 26.3655 11.7557 23.8562C12.4562 21.5537 14.2229 20.6224 16.459 19.4424C17.2052 19.0489 18.0521 18.6022 18.9626 18.0532L19.0948 17.9738C20.5569 17.0918 21.4396 16.5596 21.7287 16.2223C21.825 16.1105 21.8454 16.0043 21.8448 15.1385V15.0354C21.8448 14.427 21.6577 13.4807 21.4408 12.3844C21.0196 10.2562 20.4957 7.607 20.7941 4.89099C21.2358 0.87319 25.0267 -0.0612977 27.0002 0.003042C28.9806 -0.0569251 32.7653 0.873815 33.2064 4.89099C33.5047 7.607 32.9809 10.2555 32.5603 12.3844C32.3434 13.48 32.1563 14.4264 32.1563 15.0348V15.1379C32.1557 16.0036 32.1767 16.1098 32.2724 16.2217C32.5615 16.559 33.4442 17.0912 34.9063 17.9732L35.0385 18.0525C35.949 18.6016 36.7953 19.0482 37.5421 19.4418C39.7788 20.6217 41.5449 21.5531 42.2454 23.8556C43.0089 26.3648 43.1515 27.9833 42.7717 29.8267C42.7062 30.1446 42.6351 30.4732 42.5616 30.8143C42.2911 32.0711 41.9835 33.4959 41.7932 35.13C41.6727 36.1663 41.2156 39.7319 40.3941 42.1C39.5769 44.4556 38.4853 45.3688 37.7132 45.7205C37.4958 45.8192 37.2845 45.8648 37.1147 45.901C36.833 45.9616 36.3098 46.074 36.4784 48.7495C36.5439 49.7908 36.6254 50.8439 36.707 51.8977C36.9713 55.3259 37.245 58.8714 36.9744 62.0266C36.7341 64.83 36.248 66.847 35.8193 68.6273C35.626 69.43 35.4437 70.1883 35.3091 70.9242C34.8995 73.1711 34.7173 75.2206 35.1577 77.9203C35.6902 81.1886 35.5426 84.5973 35.2535 86.5231C35.0923 87.5994 34.7093 88.8493 34.3393 90.0587C33.9631 91.288 33.5739 92.5586 33.4881 93.4431C33.2768 95.6144 33.3139 99.0644 33.5548 99.6997C33.7271 100.116 34.1972 100.712 34.5678 101.133H43.3671C44.0491 101.133 44.6025 101.693 44.6025 102.383V107.3H46.4168C47.0987 107.3 47.6522 107.86 47.6522 108.55C47.6522 109.239 47.0987 109.799 46.4168 109.799H45.8472V127.767C45.8633 127.773 45.8794 127.779 45.8948 127.786L53.2122 130.858C53.2956 130.891 53.3741 130.933 53.4476 130.982C53.5631 131.059 53.6631 131.154 53.7447 131.263C53.8719 131.43 53.9578 131.63 53.9881 131.849C53.9967 131.912 54.001 131.976 53.9998 132.04V137.749C53.9986 138.441 53.4451 139 52.7631 139ZM2.47091 136.501H51.5271V133.274H2.47091V136.501ZM7.43237 130.775H46.5669L45.1739 130.19H8.82531L7.43237 130.775ZM10.6235 127.691H43.3752L43.3659 109.8H10.6235V127.691ZM11.8682 107.302H42.1311V103.633H11.8682V107.302ZM22.4947 101.134H31.5046C31.4169 100.978 31.339 100.82 31.2742 100.664C30.6806 99.233 30.8893 94.6256 31.0283 93.1995C31.1389 92.0632 31.5657 90.669 31.9784 89.321C32.3218 88.1997 32.6764 87.0403 32.8098 86.1496C33.0921 84.2656 33.1737 81.1167 32.7196 78.3276C32.2211 75.2705 32.4231 72.9768 32.879 70.4725C33.026 69.6667 33.2163 68.8753 33.4183 68.037C33.826 66.3442 34.2886 64.4252 34.5122 61.8123C34.7649 58.8614 34.4993 55.4208 34.2429 52.0932C34.1608 51.0276 34.0786 49.9625 34.0119 48.91C33.7982 45.5243 34.5728 43.894 36.6001 43.458C36.6514 43.4467 36.6995 43.4386 36.7422 43.4255C36.7718 43.4093 37.4414 43.0613 38.0616 41.2742C38.5595 39.84 39.037 37.4344 39.3384 34.8396C39.5429 33.0843 39.8635 31.5964 40.1464 30.2833C40.218 29.9504 40.2878 29.6293 40.3515 29.3189C40.5992 28.1164 40.6023 26.957 39.8826 24.5927C39.5015 23.3409 38.5391 22.7887 36.3981 21.6593C35.6223 21.2501 34.7426 20.786 33.7722 20.2007L33.64 20.1208C30.2105 18.0525 29.683 17.7346 29.6848 15.1385V15.0367C29.6848 14.1809 29.8942 13.1221 30.1364 11.8965C30.5237 9.9376 31.0061 7.49893 30.7497 5.16896C30.4452 2.39423 27.1905 2.4998 27.0497 2.50355C27.0157 2.5048 26.9823 2.5048 26.9484 2.50355C26.6006 2.48731 23.5448 2.47231 23.2483 5.16896C22.9919 7.49893 23.4743 9.93697 23.8623 11.8965C24.105 13.1221 24.3138 14.1815 24.3138 15.0373V15.1391C24.315 17.7346 23.7881 18.0532 20.3586 20.1214L20.2264 20.2013C19.2554 20.7873 18.3757 21.2508 17.6005 21.6599C15.4595 22.7893 14.4971 23.3409 14.116 24.5933C13.3964 26.9576 13.3988 28.117 13.6465 29.3201C13.7102 29.6293 13.7794 29.9491 13.851 30.2808C14.1345 31.5945 14.4558 33.0837 14.6602 34.8408C14.9623 37.4363 15.4391 39.8418 15.9364 41.2754C16.5566 43.0626 17.2262 43.4105 17.3003 43.4449C17.2978 43.4392 17.3473 43.4492 17.3979 43.4599C19.4259 43.8959 20.1999 45.5262 19.9861 48.9119C19.9194 49.9657 19.8373 51.0313 19.7551 52.0976C19.4987 55.4239 19.2338 58.8639 19.4864 61.8135C19.71 64.4265 20.1721 66.3448 20.5797 68.0376C20.7817 68.8765 20.9726 69.668 21.1196 70.4744C21.5761 72.9793 21.7775 75.2737 21.279 78.3295C20.825 81.1186 20.9059 84.2681 21.1888 86.1515C21.3222 87.0422 21.6774 88.2022 22.0202 89.3241C22.4329 90.6721 22.8597 92.0657 22.9703 93.202C23.1093 94.6287 23.3181 99.2355 22.7244 100.667C22.6602 100.82 22.5817 100.978 22.4947 101.134Z" fill="white"/>
</svg>
