<svg width="222" height="35" viewBox="0 0 222 35" fill="none" xmlns="http://www.w3.org/2000/svg">
<path d="M19.2893 24.8172C16.722 26.2778 14.0795 27.008 11.3619 27.008C7.97359 27.008 5.23285 25.8454 3.13971 23.5203C1.04657 21.1951 0 18.1456 0 14.3716C0 10.5625 1.12752 7.38441 3.38256 4.83726C5.6376 2.2901 8.6501 1.01652 12.4201 1.01652C14.6057 1.01652 16.7278 1.46052 18.7862 2.34852V4.24136C16.5312 3.14305 14.3282 2.59389 12.1772 2.59389C9.04329 2.59389 6.52227 3.67468 4.61416 5.83625C2.71761 7.99783 1.76934 10.7553 1.76934 14.1087C1.76934 17.6373 2.65979 20.4064 4.44069 22.4161C6.23316 24.4141 8.64432 25.4131 11.6742 25.4131C13.9176 25.4131 15.8836 24.9224 17.572 23.9409V15.651H11.7089V14.0736H19.2893V24.8172Z" fill="white"/>
<path d="M25.4646 4.10115C25.1177 4.10115 24.8112 3.97263 24.5452 3.71557C24.2793 3.45852 24.1463 3.13136 24.1463 2.7341C24.1463 2.34852 24.2793 2.03889 24.5452 1.80521C24.8228 1.55984 25.1292 1.43716 25.4646 1.43716C25.8231 1.43716 26.1353 1.554 26.4013 1.78768C26.6789 2.02137 26.8176 2.33684 26.8176 2.7341C26.8176 3.108 26.6846 3.42931 26.4187 3.69805C26.1527 3.96678 25.8347 4.10115 25.4646 4.10115ZM24.684 26.5699V8.62293H26.2799V26.5699H24.684Z" fill="white"/>
<path d="M38.9948 26.3245C38.1622 26.7217 37.3816 26.9204 36.6531 26.9204C34.028 26.9204 32.7154 25.3313 32.7154 22.1532V10.0951H29.5237V8.62293H32.7154V3.96094C32.9698 3.86747 33.2358 3.77399 33.5134 3.68052C33.7909 3.59873 34.0569 3.5111 34.3113 3.41763V8.62293H38.9948V10.0951H34.3113V21.9429C34.3113 23.1814 34.5021 24.0811 34.8837 24.642C35.2769 25.1911 35.9361 25.4657 36.8612 25.4657C37.5204 25.4657 38.2316 25.2495 38.9948 24.8172V26.3245Z" fill="white"/>
<path d="M54.5893 26.5699V15.8087C54.5893 13.6822 54.2077 12.1282 53.4444 11.1467C52.6812 10.1536 51.4901 9.65699 49.8711 9.65699C48.3446 9.65699 47.0031 10.2587 45.8467 11.4622C44.6903 12.6657 44.112 14.3891 44.112 16.6324V26.5699H42.5162V0H44.112V11.8478H44.1814C45.5807 9.40578 47.616 8.18478 50.2874 8.18478C52.2071 8.18478 53.6699 8.80988 54.676 10.0601C55.6821 11.3103 56.1852 13.1038 56.1852 15.4407V26.5699H54.5893Z" fill="white"/>
<path d="M73.2541 26.5699V23.31H73.1847C71.9473 25.7753 70.0392 27.008 67.4604 27.008C63.2625 27.008 61.1636 24.3382 61.1636 18.9985V8.62293H62.7768V18.5954C62.7768 21.0257 63.17 22.79 63.9564 23.8883C64.7543 24.9866 66.0033 25.5358 67.7032 25.5358C69.3569 25.5358 70.6926 24.9224 71.7103 23.6955C72.7395 22.4687 73.2541 20.8329 73.2541 18.7882V8.62293H74.85V26.5699H73.2541Z" fill="white"/>
<path d="M82.2049 23.3801H82.1355V26.5699H80.5396V0H82.1355V12.321H82.2049C82.8409 11.0007 83.7487 9.98414 84.9283 9.27141C86.1194 8.54699 87.4262 8.18478 88.8486 8.18478C91.1036 8.18478 92.8614 8.97346 94.1219 10.5508C95.394 12.1165 96.03 14.2489 96.03 16.9479C96.03 19.9508 95.2957 22.3811 93.827 24.2389C92.3583 26.085 90.4502 27.008 88.1027 27.008C85.4429 27.008 83.477 25.7987 82.2049 23.3801ZM82.1355 16.7026V18.9634C82.1355 20.7628 82.6964 22.311 83.8181 23.6079C84.9398 24.8932 86.4143 25.5358 88.2414 25.5358C90.057 25.5358 91.5315 24.753 92.6648 23.1873C93.7981 21.6099 94.3647 19.5418 94.3647 16.983C94.3647 14.7396 93.8444 12.9578 92.8036 11.6375C91.7628 10.3171 90.3751 9.65699 88.6404 9.65699C86.5704 9.65699 84.9687 10.358 83.8354 11.7601C82.7021 13.1622 82.1355 14.8097 82.1355 16.7026Z" fill="white"/>
<path d="M112.266 3.03205V13.2849H121.46V14.8623H112.266V26.5699H110.549V1.43716H122.171V3.03205H112.266Z" fill="white"/>
<path d="M127.496 4.10115C127.15 4.10115 126.843 3.97263 126.577 3.71557C126.311 3.45852 126.178 3.13136 126.178 2.7341C126.178 2.34852 126.311 2.03889 126.577 1.80521C126.855 1.55984 127.161 1.43716 127.496 1.43716C127.855 1.43716 128.167 1.554 128.433 1.78768C128.711 2.02137 128.85 2.33684 128.85 2.7341C128.85 3.108 128.717 3.42931 128.451 3.69805C128.185 3.96678 127.867 4.10115 127.496 4.10115ZM126.716 26.5699V8.62293H128.312V26.5699H126.716Z" fill="white"/>
<path d="M134.001 26.5699V0H135.597V26.5699H134.001Z" fill="white"/>
<path d="M148.312 26.3245C147.48 26.7217 146.699 26.9204 145.97 26.9204C143.345 26.9204 142.033 25.3313 142.033 22.1532V10.0951H138.841V8.62293H142.033V3.96094C142.287 3.86747 142.553 3.77399 142.831 3.68052C143.108 3.59873 143.374 3.5111 143.629 3.41763V8.62293H148.312V10.0951H143.629V21.9429C143.629 23.1814 143.82 24.0811 144.201 24.642C144.594 25.1911 145.253 25.4657 146.179 25.4657C146.838 25.4657 147.549 25.2495 148.312 24.8172V26.3245Z" fill="white"/>
<path d="M152.215 17.6665C152.215 20.1319 152.776 22.0598 153.898 23.4502C155.031 24.8406 156.581 25.5358 158.547 25.5358C160.536 25.5358 162.479 24.7939 164.375 23.31V25.0275C162.536 26.3479 160.484 27.008 158.217 27.008C155.927 27.008 154.077 26.1784 152.666 24.5193C151.255 22.8601 150.55 20.5174 150.55 17.4912C150.55 14.874 151.284 12.6715 152.753 10.8838C154.233 9.08446 156.153 8.18478 158.512 8.18478C160.721 8.18478 162.415 8.96762 163.594 10.5333C164.774 12.099 165.364 14.2372 165.364 16.9479V17.6665H152.215ZM163.699 16.1943C163.629 14.1262 163.138 12.5196 162.224 11.3746C161.311 10.2295 160.05 9.65699 158.443 9.65699C156.777 9.65699 155.395 10.2237 154.297 11.357C153.21 12.4787 152.539 14.0911 152.285 16.1943H163.699Z" fill="white"/>
<path d="M178.148 10.3055C177.616 9.91988 176.992 9.72709 176.275 9.72709C174.875 9.72709 173.702 10.4574 172.753 11.9179C171.805 13.3784 171.331 15.4523 171.331 18.1397V26.5699H169.77V8.62293H171.331V12.6014H171.4C171.805 11.2344 172.447 10.1711 173.326 9.41162C174.205 8.65214 175.222 8.27241 176.379 8.27241C177.038 8.27241 177.628 8.37757 178.148 8.58788V10.3055Z" fill="white"/>
<path d="M182.277 4.10115C181.93 4.10115 181.623 3.97263 181.357 3.71557C181.091 3.45852 180.958 3.13136 180.958 2.7341C180.958 2.34852 181.091 2.03889 181.357 1.80521C181.635 1.55984 181.941 1.43716 182.277 1.43716C182.635 1.43716 182.947 1.554 183.213 1.78768C183.491 2.02137 183.63 2.33684 183.63 2.7341C183.63 3.108 183.497 3.42931 183.231 3.69805C182.965 3.96678 182.647 4.10115 182.277 4.10115ZM181.496 26.5699V8.62293H183.092V26.5699H181.496Z" fill="white"/>
<path d="M200.855 26.5699V16.1242C200.855 11.8127 199.317 9.65699 196.241 9.65699C194.529 9.65699 193.124 10.2938 192.025 11.5674C190.927 12.8292 190.377 14.3949 190.377 16.2644V26.5699H188.782V8.62293H190.377V11.8828H190.447C191.742 9.41746 193.766 8.18478 196.518 8.18478C198.438 8.18478 199.906 8.83325 200.924 10.1302C201.942 11.4155 202.451 13.2557 202.451 15.651V26.5699H200.855Z" fill="white"/>
<path d="M222 25.2379C222 28.6146 221.271 31.0858 219.814 32.6515C218.357 34.2172 216.091 35 213.015 35C211.303 35 209.539 34.5443 207.724 33.6329V31.9504C209.597 33.002 211.372 33.5278 213.049 33.5278C217.952 33.5278 220.404 30.9105 220.404 25.676V23.345H220.335C218.935 25.787 216.802 27.008 213.934 27.008C211.748 27.008 209.962 26.2076 208.574 24.6069C207.198 23.0062 206.51 20.7745 206.51 17.9119C206.51 15.0492 207.256 12.7124 208.747 10.9014C210.239 9.0903 212.205 8.18478 214.645 8.18478C217.259 8.18478 219.155 9.27725 220.335 11.4622H220.404V8.62293H222V25.2379ZM220.404 15.5108C220.404 13.9217 219.872 12.5488 218.808 11.3921C217.756 10.2354 216.38 9.65699 214.68 9.65699C212.725 9.65699 211.153 10.3989 209.962 11.8828C208.77 13.3667 208.175 15.3297 208.175 17.7717C208.175 20.2253 208.718 22.1357 209.805 23.5028C210.904 24.8581 212.35 25.5358 214.142 25.5358C216.05 25.5358 217.571 24.9107 218.704 23.6605C219.837 22.4103 220.404 20.8797 220.404 19.0686V15.5108Z" fill="white"/>
</svg>
