<svg width="37" height="25" viewBox="0 0 37 25" fill="none" xmlns="http://www.w3.org/2000/svg">
<path d="M27.6349 24.5137L26.6555 24.5133L25.0807 24.5118L18.2783 24.5086L19.2265 22.3478H23.7687L21.1345 18.0014L18.5405 13.7227L14.7549 22.3478L14.6623 22.5574L13.8071 24.5062L13.5904 25L13.2903 24.5062L12.2041 22.7138L11.9826 22.3478L6.96588 14.0723L4.88681 18.8086L3.33313 22.3478H7.03204L8.33931 24.5034L2.38875 24.5001L0 24.4992L0.943901 22.3478L3.50092 16.5224L5.57951 11.7866L6.65237 9.34345L8.03778 11.6296L13.2769 20.2712L17.1551 11.4365L18.227 8.9939L19.6124 11.2801L22.2064 15.5593L26.3218 22.3478L27.0668 23.5764L27.6349 24.5137Z" fill="white"/>
<path d="M37.0003 4.91297L30.2101 20.5507L29.3676 22.4911L29.1391 23.0183L28.8225 22.4911L27.754 20.7096L22.8988 12.6115L20.3067 8.28983L18.2031 4.78104L16.8907 7.80342L15.8193 10.2711L13.5136 15.5812L12.1289 13.2726L14.4351 7.96192L15.506 5.49429L16.8179 2.47238V2.47191L17.8917 0L18.2898 0.663414L19.2759 2.30961L23.3763 9.14923L23.9712 10.1415L28.6372 17.926L28.8264 18.2406L35.6156 2.60336L37.0003 4.91297Z" fill="white"/>
</svg>
