<svg width="166" height="35" viewBox="0 0 166 35" fill="none" xmlns="http://www.w3.org/2000/svg">
<path d="M5.46313 11.4496L5.89585 15.5194C6.7613 13.9276 7.93326 12.6796 9.41173 11.7752C10.8902 10.8708 12.6031 10.4186 14.5503 10.4186C16.4254 10.4186 17.9941 10.8346 19.2562 11.6667C20.5183 12.4987 21.2936 13.6563 21.5821 15.1395C22.5557 13.6925 23.7457 12.553 25.152 11.7209C26.5944 10.8527 28.109 10.4186 29.6956 10.4186C31.9674 10.4186 33.7524 11.0698 35.0506 12.3721C36.3848 13.6382 37.0699 15.2842 37.106 17.3101V34.4031H31.102V19.6434C31.0299 18.5581 30.7774 17.6537 30.3447 16.9302C29.912 16.1705 29.1187 15.7545 27.9647 15.6822C26.6666 15.6822 25.5487 16.0982 24.6111 16.9302C23.6736 17.7261 22.9343 18.7752 22.3934 20.0775C21.8886 21.3437 21.6362 22.6822 21.6362 24.093V34.4031H15.5239V19.6434C15.4879 18.5581 15.2355 17.6537 14.7667 16.9302C14.2979 16.1705 13.4685 15.7545 12.2785 15.6822C11.0164 15.6822 9.91657 16.0982 8.979 16.9302C8.04144 17.7261 7.32023 18.7752 6.81539 20.0775C6.31054 21.3437 6.05812 22.6822 6.05812 24.093V34.4031H0V11.4496H5.46313Z" fill="white"/>
<path d="M43.5343 22.6822C43.5343 20.3669 44.0752 18.2868 45.157 16.4419C46.2749 14.5969 47.7894 13.1318 49.7006 12.0465C51.6479 10.9612 53.8836 10.4186 56.4078 10.4186C58.9681 10.4186 61.1858 10.9612 63.0609 12.0465C64.9721 13.1318 66.4506 14.5969 67.4963 16.4419C68.5421 18.2868 69.065 20.3669 69.065 22.6822C69.065 24.9974 68.5421 27.0956 67.4963 28.9767C66.4506 30.8217 64.9721 32.2868 63.0609 33.3721C61.1497 34.4574 58.914 35 56.3537 35C53.8656 35 51.6479 34.5116 49.7006 33.5349C47.7894 32.522 46.2749 31.093 45.157 29.2481C44.0752 27.4031 43.5343 25.2145 43.5343 22.6822ZM49.6465 22.7364C49.6465 24.1111 49.935 25.3592 50.512 26.4806C51.0889 27.5659 51.8642 28.4341 52.8378 29.0853C53.8475 29.7003 54.9834 30.0078 56.2455 30.0078C58.2289 30.0078 59.8335 29.3204 61.0596 27.9457C62.2856 26.5349 62.8987 24.7984 62.8987 22.7364C62.8987 20.6744 62.2856 18.938 61.0596 17.5271C59.8335 16.1163 58.2289 15.4109 56.2455 15.4109C54.9834 15.4109 53.8475 15.7545 52.8378 16.4419C51.8642 17.093 51.0889 17.9793 50.512 19.1008C49.935 20.186 49.6465 21.3979 49.6465 22.7364Z" fill="white"/>
<path d="M73.5376 22.6822C73.5376 20.3669 74.0785 18.2868 75.1603 16.4419C76.2781 14.5969 77.7927 13.1318 79.7039 12.0465C81.6511 10.9612 83.8868 10.4186 86.4111 10.4186C88.9713 10.4186 91.1891 10.9612 93.0642 12.0465C94.9754 13.1318 96.4539 14.5969 97.4996 16.4419C98.5453 18.2868 99.0682 20.3669 99.0682 22.6822C99.0682 24.9974 98.5453 27.0956 97.4996 28.9767C96.4539 30.8217 94.9754 32.2868 93.0642 33.3721C91.153 34.4574 88.9173 35 86.357 35C83.8688 35 81.6511 34.5116 79.7039 33.5349C77.7927 32.522 76.2781 31.093 75.1603 29.2481C74.0785 27.4031 73.5376 25.2145 73.5376 22.6822ZM79.6498 22.7364C79.6498 24.1111 79.9383 25.3592 80.5152 26.4806C81.0922 27.5659 81.8675 28.4341 82.8411 29.0853C83.8508 29.7003 84.9867 30.0078 86.2488 30.0078C88.2321 30.0078 89.8368 29.3204 91.0628 27.9457C92.2889 26.5349 92.9019 24.7984 92.9019 22.7364C92.9019 20.6744 92.2889 18.938 91.0628 17.5271C89.8368 16.1163 88.2321 15.4109 86.2488 15.4109C84.9867 15.4109 83.8508 15.7545 82.8411 16.4419C81.8675 17.093 81.0922 17.9793 80.5152 19.1008C79.9383 20.186 79.6498 21.3979 79.6498 22.7364Z" fill="white"/>
<path d="M114.485 35L101.341 11.4496H108.535L114.863 24.5271L120.543 11.4496H127.304L114.755 35H114.485Z" fill="white"/>
<path d="M132.268 11.4496H138.326V34.4031H132.268V11.4496ZM131.997 3.25581C131.997 2.31524 132.358 1.53747 133.079 0.922478C133.837 0.307493 134.648 0 135.513 0C136.343 0 137.118 0.307493 137.839 0.922478C138.56 1.53747 138.921 2.31524 138.921 3.25581C138.921 4.19638 138.56 4.97416 137.839 5.58915C137.118 6.16796 136.343 6.45736 135.513 6.45736C134.648 6.45736 133.837 6.16796 133.079 5.58915C132.358 4.97416 131.997 4.19638 131.997 3.25581Z" fill="white"/>
<path d="M149.394 16.3876C148.204 16.3876 147.177 16.0078 146.311 15.2481C145.446 14.4522 145.013 13.3127 145.013 11.8295V9.2248H149.557V9.98449C149.557 10.6357 149.701 11.0517 149.989 11.2326C150.278 11.3773 150.747 11.4496 151.396 11.4496H166L153.613 29.4109H165.838V34.4031H143.823L156.21 16.3876H149.394Z" fill="white"/>
</svg>
